<?xml version="1.0" standalone="no"?>
<!DOCTYPE svg PUBLIC "-//W3C//DTD SVG 20010904//EN"
 "http://www.w3.org/TR/2001/REC-SVG-20010904/DTD/svg10.dtd">
<svg version="1.0" xmlns="http://www.w3.org/2000/svg"
 width="300.000000pt" height="262.000000pt" viewBox="0 0 300.000000 262.000000"
 preserveAspectRatio="xMidYMid meet">
<metadata>
Created by potrace 1.10, written by Peter Selinger 2001-2011
</metadata>
<g transform="translate(0.000000,262.000000) scale(0.100000,-0.100000)"
fill="#000000" stroke="none">
<path d="M154 2461 c-50 -23 -88 -71 -104 -129 -36 -137 99 -270 236 -233 43
12 82 36 73 45 -3 4 -22 -1 -42 -9 -47 -20 -110 -19 -154 1 -104 50 -124 197
-38 273 119 104 293 17 285 -143 -3 -54 -1 -63 10 -46 5 8 10 40 10 71 0 140
-144 230 -276 170z"/>
<path d="M1365 2246 c-39 -18 -80 -62 -99 -108 -60 -142 74 -296 223 -258 115
29 177 139 140 251 -15 43 -65 97 -106 115 -41 18 -119 17 -158 0z m153 -25
c56 -28 85 -75 90 -142 5 -67 -12 -106 -63 -145 -104 -79 -265 -2 -267 128 -2
130 128 216 240 159z"/>
<path d="M398 2175 c-10 -13 -18 -26 -18 -28 0 -3 41 -38 91 -77 87 -70 90
-74 82 -104 -11 -45 -6 -111 11 -144 74 -143 282 -143 349 0 14 29 27 60 30
69 3 11 29 19 87 28 104 16 130 26 130 50 0 39 -21 42 -126 21 -93 -20 -100
-20 -109 -4 -5 10 -25 35 -44 56 -61 69 -175 82 -251 28 l-26 -19 -91 75 c-50
41 -93 74 -95 74 -2 0 -11 -11 -20 -25z m401 -121 c24 -9 58 -37 85 -68 l44
-52 -29 -61 c-36 -75 -75 -110 -133 -118 -116 -18 -192 66 -179 197 l6 66 61
25 c72 31 93 32 145 11z"/>
<path d="M2132 2100 c-48 -11 -105 -53 -126 -92 l-19 -34 -103 19 c-118 22
-137 19 -132 -20 3 -27 6 -28 116 -47 106 -18 112 -21 112 -43 0 -13 9 -41 20
-62 44 -88 141 -130 231 -100 119 40 173 171 116 280 -39 73 -135 118 -215 99z
m124 -55 c87 -56 101 -177 30 -248 -73 -73 -206 -53 -248 37 -10 20 -25 52
-35 72 l-17 35 61 59 c34 32 72 60 84 63 37 7 100 -1 125 -18z"/>
<path d="M1365 1696 c-87 -39 -146 -181 -100 -242 13 -17 14 -14 14 42 -1 77
21 127 72 161 120 80 268 -5 269 -155 0 -29 4 -41 11 -36 21 12 5 118 -23 162
-48 71 -163 104 -243 68z"/>
<path d="M1611 1414 c-6 -15 -10 -28 -8 -30 2 -3 91 -56 197 -120 l194 -116
18 24 c9 13 18 26 18 29 0 8 -385 239 -398 239 -5 0 -14 -12 -21 -26z"/>
<path d="M1075 1295 l-190 -133 -28 24 c-55 46 -171 46 -232 -1 -101 -76 -110
-202 -21 -291 85 -85 204 -81 284 11 43 48 57 112 40 175 -6 23 6 34 188 159
181 124 194 134 180 150 -9 10 -16 23 -16 29 0 7 -3 12 -7 11 -5 -1 -93 -61
-198 -134z m-302 -111 c22 -4 37 -12 37 -21 0 -8 4 -12 9 -8 5 3 25 -2 43 -11
32 -15 33 -17 35 -81 4 -120 -54 -188 -159 -188 -96 1 -153 59 -153 154 1 70
29 115 89 142 46 21 47 21 99 13z"/>
<path d="M1528 1369 c-42 -21 -52 -45 -15 -33 30 9 67 34 67 45 0 13 -10 11
-52 -12z"/>
<path d="M1330 1369 c0 -6 18 -18 40 -27 l39 -17 3 -337 3 -338 -28 -6 c-40
-8 -97 -61 -118 -109 -68 -148 76 -313 233 -266 51 16 114 73 128 117 l12 34
177 0 178 0 17 -45 c54 -141 259 -161 343 -34 29 44 41 126 25 168 -8 23 -2
29 79 84 l88 59 -21 28 -20 28 -84 -59 -85 -59 -37 24 c-102 67 -242 25 -288
-86 l-17 -43 -179 0 c-154 0 -178 2 -178 16 0 8 -13 36 -29 61 -22 34 -43 53
-80 70 l-51 23 0 336 0 336 -24 -4 c-16 -3 -31 2 -46 17 -25 25 -80 44 -80 29z
m194 -776 c60 -46 113 -130 97 -153 -6 -8 -20 -32 -31 -52 -57 -106 -198 -118
-271 -24 -33 42 -37 129 -9 174 11 18 34 41 52 50 17 9 42 27 57 39 29 24 31
23 105 -34z m760 -9 l64 -27 -2 -88 -1 -88 -39 -40 c-44 -45 -92 -58 -152 -42
-46 12 -73 37 -119 108 -29 45 -31 54 -18 64 8 7 23 29 34 50 44 87 123 108
233 63z"/>
<path d="M2100 1248 c-59 -31 -66 -54 -8 -28 24 11 65 20 92 20 121 0 197
-123 146 -236 -43 -97 -176 -125 -260 -56 -41 33 -60 77 -60 137 0 50 -14 61
-23 17 -16 -80 39 -171 125 -206 53 -23 97 -20 156 10 68 34 102 88 102 164 0
151 -141 243 -270 178z"/>
<path d="M2598 960 c-68 -37 -116 -129 -102 -199 10 -51 24 -46 24 8 0 63 13
98 53 139 56 58 157 66 217 16 69 -58 89 -136 55 -208 -38 -80 -136 -117 -219
-82 -55 23 -78 21 -48 -4 32 -27 98 -43 141 -35 151 28 219 203 124 316 -56
66 -169 88 -245 49z"/>
</g>
</svg>
